#!OML:ASF E:\emotionWalksFemale\Project 1\Capture day 1\Session 1\Female1.ASF
:FULLY-SPECIFIED
:DEGREES
223
root 8.99957 15.4572 23.1597 188.198 9.25606 -179.119
lowerback 14.7786 0.100372 1.09077
upperback -3.17913 0.375778 0.253083
thorax -11.8234 0.112215 -0.433786
lowerneck -7.73543 -0.745107 -6.98364
upperneck -1.19029 -0.320798 7.67137
head 1.0253 0.0578297 3.75648
rclavicle 8.16881e-015 -7.65321e-015
rhumerus -34.1385 4.93717 2.66093
rradius 36.0079
rwrist 16.3947
rhand 3.94504 -58.5457
rfingers 7.12502
rthumb 29.3632 -86.2464
lclavicle 8.16881e-015 -7.65321e-015
lhumerus -35.556 16.2235 -11.9363
lradius 35.3252
lwrist -9.23096
lhand 10.2641 -23.3456
lfingers 7.12502
lthumb 35.3767 3.1216
rfemur -14.6826 11.2166 22.9167
rtibia 25.2018
rfoot -17.825 -19.4526
rtoes -9.24858
lfemur -18.5456 -3.62196 -20.8876
ltibia 32.0696
lfoot -25.1982 13.3469
ltoes -39.8371
224
root 9.00492 15.4376 23.1573 188.418 9.02543 -179.036
lowerback 15.1336 -0.0273455 1.10357
upperback -3.22821 0.229274 0.383361
thorax -12.0932 0.047026 -0.262574
lowerneck -7.99007 -0.630537 -7.14858
upperneck -0.960953 -0.153309 7.66538
head 1.13335 0.143691 3.79733
rclavicle -8.23093e-015 4.47266e-016
rhumerus -34.087 4.8922 4.22669
rradius 35.8658
rwrist 16.4017
rhand 4.15637 -58.9859
rfingers 7.12502
rthumb 29.565 -86.651
lclavicle -8.23093e-015 4.47266e-016
lhumerus -36.1987 16.7239 -13.5163
lradius 35.4592
lwrist -9.26194
lhand 10.5271 -23.1463
lfingers 7.12502
lthumb 35.6261 3.26117
rfemur -15.3406 10.7312 23.0642
rtibia 26.1091
rfoot -18.2954 -19.3588
rtoes -9.47785
lfemur -19.5567 -2.45004 -20.9194
ltibia 33.4446
lfoot -25.5992 12.7416
ltoes -39.6605
225
root 9.00798 15.415 23.1568 188.646 8.83644 -178.982
lowerback 15.3009 -0.137095 1.16092
upperback -3.14444 0.102911 0.442128
thorax -12.0991 -0.0133242 -0.19873
lowerneck -8.35595 -0.560106 -7.18317
upperneck -0.781104 -0.0399467 7.64918
head 1.24899 0.207026 3.80838
rclavicle -7.36746e-015 3.18055e-015
rhumerus -34.1452 4.70854 5.66105
rradius 35.7324
rwrist 16.383
rhand 4.18934 -59.4365
rfingers 7.12502
rthumb 29.5965 -87.0961
lclavicle -7.36746e-015 3.18055e-015
lhumerus -36.712 17.4312 -14.9815
lradius 35.574
lwrist -9.15273
lhand 10.3924 -22.3042
lfingers 7.12502
lthumb 35.4984 4.13397
rfemur -16.1216 9.97312 23.1906
rtibia 27.2026
rfoot -18.8416 -19.1146
rtoes -9.67079
lfemur -20.6494 -1.189 -21.0376
ltibia 34.9357
lfoot -26.078 12.1167
ltoes -38.7816
226
root 9.00999 15.3832 23.161 188.867 8.69525 -178.966
lowerback 15.6905 -0.181305 1.19468
upperback -3.18233 0.056483 0.434339
thorax -12.3748 -0.0392717 -0.213864
lowerneck -8.48033 -0.520352 -6.94005
upperneck -0.688002 -0.00436741 7.4749
head 1.29567 0.223045 3.70235
rclavicle -3.73839e-014 -3.77691e-015
rhumerus -34.463 4.77307 6.9756
rradius 35.6811
rwrist 16.4446
rhand 3.92967 -59.7844
rfingers 7.12502
rthumb 29.3486 -87.4877
lclavicle -3.73839e-014 -3.77691e-015
lhumerus -36.9974 17.8873 -16.2903
lradius 35.7013
lwrist -8.95273
lhand 10.008 -21.9575
lfingers 7.12502
lthumb 35.1339 4.56716
rfemur -17.03 9.28029 23.2606
rtibia 28.4633
rfoot -19.3277 -18.9867
rtoes -10.3214
lfemur -21.8423 0.250081 -21.283
ltibia 36.5204
lfoot -26.3822 11.7168
ltoes -37.7197
227
root 9.01357 15.344 23.167 189.071 8.48312 -178.95
lowerback 16.0876 -0.265809 1.21065
upperback -3.2012 -0.0454729 0.441177
thorax -12.6345 -0.088896 -0.187453
lowerneck -8.3513 -0.411415 -6.78912
upperneck -0.89589 0.137146 7.41223
head 1.19154 0.293048 3.65166
rclavicle -1.77602e-014 -1.07344e-014
rhumerus -34.7028 4.52776 8.24864
rradius 35.5938
rwrist 16.9513
rhand 3.71724 -60.0184
rfingers 7.12502
rthumb 29.1457 -87.757
lclavicle -1.77602e-014 -1.07344e-014
lhumerus -37.3815 18.3923 -17.7048
lradius 35.7776
lwrist -8.87199
lhand 9.43624 -22.0093
lfingers 7.12502
lthumb 34.5914 4.6412
rfemur -18.0038 8.65314 23.3465
rtibia 29.8704
rfoot -19.8428 -19.0343
rtoes -11.0975
lfemur -23.0774 1.65975 -21.5959
ltibia 38.1786
lfoot -26.612 11.6463
ltoes -36.6349
228
root 9.01832 15.3049 23.1685 189.382 8.26118 -178.932
lowerback 16.2526 -0.36824 1.2384
upperback -3.18546 -0.172013 0.456373
thorax -12.7166 -0.149422 -0.151897
lowerneck -8.28217 -0.337478 -6.66787
upperneck -1.19396 0.247399 7.31838
head 1.07184 0.34993 3.59444
rclavicle 2.00835e-014 -2.48481e-016
rhumerus -34.9551 4.25422 9.45133
rradius 35.5202
rwrist 17.6509
rhand 3.43637 -60.3129
rfingers 7.12502
rthumb 28.8775 -88.0976
lclavicle 2.00835e-014 -2.48481e-016
lhumerus -37.8145 18.8915 -18.9677
lradius 35.8936
lwrist -8.51918
lhand 8.37599 -21.6107
lfingers 7.12502
lthumb 33.5844 5.26435
rfemur -19.119 7.96518 23.4375
rtibia 31.3925
rfoot -20.508 -18.929
rtoes -11.1557
lfemur -24.4708 3.0698 -21.98
ltibia 39.9148
lfoot -26.7927 11.8396
ltoes -36.6188
229
root 9.02461 15.2628 23.1691 189.689 8.11664 -178.937
lowerback 16.4863 -0.416474 1.20047
upperback -3.18094 -0.238709 0.470221
thorax -12.8514 -0.17725 -0.0956481
lowerneck -8.42241 -0.325981 -6.47441
upperneck -1.35333 0.272179 7.09409
head 1.04061 0.364437 3.47863
rclavicle -2.27733e-014 4.05024e-015
rhumerus -35.2388 3.96668 10.5781
rradius 35.3648
rwrist 18.5421
rhand 3.09225 -60.473
rfingers 7.12502
rthumb 28.5487 -88.3135
lclavicle -2.27733e-014 4.05024e-015
lhumerus -38.2435 19.0779 -19.8498
lradius 36.2169
lwrist -7.62417
lhand 6.85576 -20.8
lfingers 7.12502
lthumb 32.1384 6.37807
rfemur -20.2657 7.25953 23.5088
rtibia 32.9601
rfoot -21.294 -18.6006
rtoes -10.7229
lfemur -25.8787 4.58163 -22.4667
ltibia 41.6886
lfoot -26.8964 11.8525
ltoes -35.527
230
root 9.03195 15.2134 23.1725 189.895 7.9807 -178.929
lowerback 16.8168 -0.46285 1.09731
upperback -3.11352 -0.309973 0.526279
thorax -12.9705 -0.199299 0.0464715
lowerneck -8.51813 -0.249101 -6.37456
upperneck -1.60515 0.397753 6.94908
head 0.965103 0.431965 3.41118
rclavicle -1.09021e-014 1.63997e-015
rhumerus -35.4788 3.64185 11.5442
rradius 35.1592
rwrist 19.6888
rhand 2.77065 -60.621
rfingers 7.12502
rthumb 28.2414 -88.5127
lclavicle -1.09021e-014 1.63997e-015
lhumerus -38.7867 19.2232 -20.6076
lradius 36.525
lwrist -6.91409
lhand 5.12893 -20.1077
lfingers 7.12502
lthumb 30.4929 7.38914
rfemur -21.3459 6.50575 23.633
rtibia 34.5423
rfoot -22.1651 -18.3333
rtoes -10.2761
lfemur -27.1769 6.07739 -22.9773
ltibia 43.4417
lfoot -26.9446 11.8962
ltoes -33.42
231
root 9.03847 15.163 23.1777 190.134 7.82708 -178.923
lowerback 17.0161 -0.494364 0.970882
upperback -3.02803 -0.366868 0.597041
thorax -12.9895 -0.211678 0.213562
lowerneck -8.39876 -0.176538 -6.2582
upperneck -2.01523 0.512712 6.78975
head 0.801367 0.491309 3.33124
rclavicle -1.46666e-014 8.94531e-016
rhumerus -35.92 3.91953 12.241
rradius 35.1323
rwrist 20.6418
rhand 2.46946 -60.9905
rfingers 7.12502
rthumb 27.9535 -88.9294
lclavicle -1.46666e-014 8.94531e-016
lhumerus -39.2805 19.1894 -21.148
lradius 36.8146
lwrist -6.48721
lhand 3.46792 -19.7761
lfingers 7.12502
lthumb 28.9076 8.00347
rfemur -22.5094 5.80387 23.7687
rtibia 36.1523
rfoot -22.9352 -18.3426
rtoes -10.5951
lfemur -28.543 7.4502 -23.5224
ltibia 45.1621
lfoot -27.2108 12.2474
ltoes -31.6926
232
root 9.0453 15.1124 23.1849 190.405 7.65852 -178.906
lowerback 17.1085 -0.50213 0.868895
upperback -2.91656 -0.394062 0.626543
thorax -12.9149 -0.214256 0.311527
lowerneck -8.08465 -0.119458 -6.02792
upperneck -2.71901 0.609878 6.59045
head 0.510966 0.542505 3.21083
rclavicle -1.67352e-014 5.51627e-015
rhumerus -36.3799 4.52068 12.6063
rradius 35.0142
rwrist 21.408
rhand 2.09351 -61.2779
rfingers 7.12502
rthumb 27.594 -89.2749
lclavicle -1.67352e-014 5.51627e-015
lhumerus -39.6705 18.8063 -21.4421
lradius 37.2086
lwrist -5.87771
lhand 2.02062 -19.7536
lfingers 7.12502
lthumb 27.5243 8.25441
rfemur -23.7022 5.17925 23.9137
rtibia 37.7839
rfoot -23.5337 -18.3839
rtoes -11.3423
lfemur -29.9851 8.7076 -24.0858
ltibia 46.8248
lfoot -27.515 11.3449
ltoes -25.2106
233
root 9.05328 15.0529 23.1976 190.648 7.41622 -178.793
lowerback 17.2863 -0.578183 0.895297
upperback -2.73677 -0.48384 0.642695
thorax -12.8135 -0.25548 0.339202
lowerneck -8.00575 -0.0135032 -5.8003
upperneck -3.36539 0.791981 6.47502
head 0.276966 0.644641 3.1266
rclavicle -1.08555e-014 6.03808e-015
rhumerus -36.4946 5.24058 12.5575
rradius 34.6268
rwrist 21.8937
rhand 1.57158 -61.6417
rfingers 7.12502
rthumb 27.0948 -89.7174
lclavicle -1.08555e-014 6.03808e-015
lhumerus -40.1398 18.3439 -21.6605
lradius 37.5294
lwrist -5.24819
lhand 0.381036 -19.827
lfingers 7.12502
lthumb 25.9553 8.4208
rfemur -24.8368 4.59745 24.1791
rtibia 39.4498
rfoot -24.2825 -18.2561
rtoes -10.8622
lfemur -31.4428 9.8426 -24.5477
ltibia 48.4197
lfoot -27.5571 11.5015
ltoes -21.5681
234
root 9.06085 14.9903 23.2098 190.85 7.13702 -178.711
lowerback 18.143 -0.590843 0.766066
upperback -2.85825 -0.498869 0.763481
thorax -13.4609 -0.244626 0.563592
lowerneck -8.32525 -0.0149189 -5.73351
upperneck -3.23821 0.797044 6.33096
head 0.37285 0.651285 3.06864
rclavicle -1.043e-014 5.56597e-015
rhumerus -37.6439 6.61253 12.6104
rradius 35.0827
rwrist 22.0754
rhand 1.10908 -62.0564
rfingers 7.12502
rthumb 26.6522 90.2001
lclavicle -1.043e-014 5.56597e-015
lhumerus -40.5269 17.3288 -21.4157
lradius 37.8781
lwrist -4.76545
lhand -1.35846 -19.9201
lfingers 7.12502
lthumb 24.2886 8.56124
rfemur -25.9557 4.03553 24.4121
rtibia 41.1753
rfoot -25.3799 -17.9309
rtoes -8.29387
lfemur -32.8308 10.7978 -25.0364
ltibia 49.958
lfoot -27.467 11.9931
ltoes -20.4391
235
root 9.06691 14.9288 23.218 191.054 6.84472 -178.81
lowerback 18.7943 -0.573366 0.612122
upperback -2.89531 -0.506855 0.730071
thorax -13.8909 -0.236251 0.625119
lowerneck -8.65801 -0.11376 -5.62832
upperneck -3.28278 0.689809 6.28286
head 0.423385 0.608701 3.03217
rclavicle -8.39865e-015 -8.54774e-015
rhumerus -37.9994 7.4474 12.4487
rradius 34.4798
rwrist 22.6128
rhand 0.863072 -62.5639
rfingers 7.12502
rthumb 26.4168 90.7433
lclavicle -8.39865e-015 -8.54774e-015
lhumerus -40.8417 16.7071 -21.1073
lradius 38.1854
lwrist -4.80037
lhand -3.13455 -20.3572
lfingers 7.12502
lthumb 22.5848 8.34162
rfemur -27.1346 3.3822 24.4583
rtibia 42.9596
rfoot -26.3342 -17.6983
rtoes -6.55489
lfemur -34.1496 11.5894 -25.707
ltibia 51.4532
lfoot -27.6649 12.3218
ltoes -18.6748
236
root 9.07216 14.8619 23.2308 191.31 6.47986 -178.893
lowerback 18.8041 -0.617881 0.521464
upperback -2.61372 -0.591865 0.67782
thorax -13.5663 -0.269665 0.639595
lowerneck -8.88305 -0.170659 -5.36246
upperneck -3.85199 0.670211 6.12677
head 0.280587 0.618514 2.92563
rclavicle -4.6396e-015 -4.28319e-015
rhumerus -39.3741 7.35378 12.1164
rradius 34.5902
rwrist 23.5408
rhand 0.650268 -62.6012
rfingers 7.12502
rthumb 26.2131 90.811
lclavicle -4.6396e-015 -4.28319e-015
lhumerus -41.4072 16.9453 -20.8944
lradius 38.2699
lwrist -5.4008
lhand -5.27584 -21.0873
lfingers 7.12502
lthumb 20.5284 7.84733
rfemur -28.4177 2.66393 24.5731
rtibia 44.7893
rfoot -26.8951 -17.9043
rtoes -7.43726
lfemur -35.4952 12.1813 -26.2992
ltibia 52.9343
lfoot -28.2259 12.1774
ltoes -15.1423
